# Blender v2.82 (sub 7) OBJ File: ''
# www.blender.org
mtllib collision_box_academy.mtl
o collision_box_academy
v 0.060000 -0.040000 0.080000
v 0.060000 -0.040000 -0.080000
v 0.060000 0.040000 0.080000
v 0.060000 0.040000 -0.080000
v -0.060000 -0.040000 0.080000
v -0.060000 0.040000 0.080000
v -0.060000 -0.040000 -0.080000
v -0.060000 0.040000 -0.080000
vt 0.000000 0.000000
vt 16.000000 0.000000
vt 0.000000 8.000000
vt 16.000000 8.000000
vt 0.000000 0.000000
vt 12.000000 0.000000
vt 0.000000 8.000000
vt 12.000000 8.000000
vt 0.000000 0.000000
vt 16.000000 0.000000
vt 0.000000 8.000000
vt 16.000000 8.000000
vt 0.000000 0.000000
vt 12.000000 0.000000
vt 0.000000 8.000000
vt 12.000000 8.000000
vt -8.000000 -6.000000
vt 8.000000 -6.000000
vt -8.000000 6.000000
vt 8.000000 6.000000
vt 8.000000 6.000000
vt -8.000000 6.000000
vt 8.000000 -6.000000
vt -8.000000 -6.000000
vn 1.0000 0.0000 0.0000
vn 0.0000 -0.0000 1.0000
vn -1.0000 0.0000 0.0000
vn 0.0000 0.0000 -1.0000
vn 0.0000 1.0000 0.0000
vn 0.0000 -1.0000 -0.0000
usemtl 191,191,191
s 1
f 1/1/1 2/2/1 3/3/1
f 3/3/1 2/2/1 4/4/1
f 5/5/2 1/6/2 6/7/2
f 6/7/2 1/6/2 3/8/2
f 7/9/3 5/10/3 8/11/3
f 8/11/3 5/10/3 6/12/3
f 2/13/4 7/14/4 4/15/4
f 4/15/4 7/14/4 8/16/4
f 8/17/5 6/18/5 4/19/5
f 4/19/5 6/18/5 3/20/5
f 2/21/6 1/22/6 7/23/6
f 7/23/6 1/22/6 5/24/6
